<svg width="20" height="20" viewBox="0 0 20 20" fill="none" xmlns="http://www.w3.org/2000/svg">
<path fill-rule="evenodd" clip-rule="evenodd" d="M10.0001 1.66666C14.5952 1.66666 18.3334 5.40486 18.3334 9.99999C18.3334 14.5951 14.5952 18.3333 10.0001 18.3333C5.40495 18.3333 1.66675 14.5951 1.66675 9.99999C1.66675 5.40486 5.40495 1.66666 10.0001 1.66666ZM10.0001 2.49999C5.86475 2.49999 2.50008 5.86465 2.50008 9.99999C2.50008 14.1353 5.86475 17.5 10.0001 17.5C14.1354 17.5 17.5001 14.1353 17.5001 9.99999C17.5001 5.86465 14.1354 2.49999 10.0001 2.49999ZM10.0001 8.33332C10.2304 8.33332 10.4167 8.51968 10.4167 8.74999V14.5833C10.4167 14.8136 10.2304 15 10.0001 15C9.76978 15 9.58341 14.8136 9.58341 14.5833V8.74999C9.58341 8.51968 9.76978 8.33332 10.0001 8.33332ZM10.0001 4.99999C10.2304 4.99999 10.4167 5.18635 10.4167 5.41666V6.24999C10.4167 6.4803 10.2304 6.66666 10.0001 6.66666C9.76978 6.66666 9.58341 6.4803 9.58341 6.24999V5.41666C9.58341 5.18635 9.76978 4.99999 10.0001 4.99999Z" fill="#595959"/>
</svg>

